<?xml version="1.0" standalone="no"?>
<!DOCTYPE svg PUBLIC "-//W3C//DTD SVG 20010904//EN"
 "http://www.w3.org/TR/2001/REC-SVG-20010904/DTD/svg10.dtd">
<svg version="1.0" xmlns="http://www.w3.org/2000/svg"
 width="800.000000pt" height="540.000000pt" viewBox="0 0 800.000000 540.000000"
 preserveAspectRatio="xMidYMid meet">

<g transform="translate(0.000000,540.000000) scale(0.100000,-0.100000)"
fill="#000000" stroke="none">
<path d="M3835 4460 c-541 -85 -965 -489 -1082 -1031 -22 -103 -25 -391 -5
-484 60 -277 177 -497 359 -678 164 -162 295 -244 513 -318 231 -79 444 -81
669 -7 99 33 154 68 205 131 29 36 31 44 31 122 0 77 -2 87 -30 127 -34 48
-107 102 -163 119 -56 17 -220 23 -271 9 -50 -13 -127 -81 -136 -120 -7 -30
27 -90 51 -90 15 0 15 2 -1 20 -38 42 19 110 103 124 78 12 183 -38 217 -105
30 -58 8 -158 -46 -205 -172 -150 -545 -144 -813 14 -103 61 -240 194 -294
287 -164 282 -140 657 65 998 104 172 277 348 463 470 164 107 397 202 607
247 168 36 490 38 643 4 39 -9 -61 82 -170 155 -141 95 -291 159 -457 196 -82
19 -372 28 -458 15z"/>
<path d="M4525 4020 c-387 -41 -763 -228 -1071 -534 -166 -165 -261 -320 -306
-504 -29 -115 -31 -325 -4 -421 40 -148 125 -286 227 -371 175 -146 395 -217
591 -192 124 16 192 45 256 109 l54 54 -4 55 c-5 61 -28 93 -90 125 -78 40
-189 8 -187 -54 l0 -22 9 22 c27 67 139 51 159 -23 25 -91 -61 -162 -217 -180
-162 -18 -379 109 -449 263 -32 70 -42 195 -23 282 62 283 395 598 732 691
126 35 325 53 523 47 179 -5 260 -17 404 -57 91 -26 120 -40 161 -82 l32 -32
-7 75 c-28 293 -150 597 -272 679 -87 57 -144 71 -298 75 -77 2 -176 0 -220
-5z"/>
<path d="M4535 3244 c-386 -59 -666 -185 -831 -375 -144 -166 -207 -369 -158
-512 42 -125 212 -237 358 -237 69 0 182 35 212 65 29 30 30 54 3 89 -23 30
-45 36 -28 8 18 -28 3 -70 -31 -87 -16 -8 -53 -15 -82 -15 -75 0 -154 47 -185
110 -32 62 -31 157 1 225 39 81 149 172 281 230 210 93 603 68 780 -50 117
-78 179 -169 180 -267 0 -32 1 -58 1 -58 8 0 145 222 175 283 47 98 93 276 86
330 -8 57 -50 113 -105 141 -66 33 -182 74 -277 97 -78 19 -312 33 -380 23z"/>
<path d="M3165 1562 c-112 -54 -150 -195 -84 -310 40 -71 92 -96 189 -90 117
6 179 68 188 189 7 94 -29 168 -101 205 -47 25 -146 28 -192 6z m173 -58 c76
-50 65 -236 -17 -278 -43 -23 -113 -21 -143 4 -56 44 -76 158 -40 230 33 66
132 88 200 44z"/>
<path d="M5127 1566 c-116 -43 -162 -184 -99 -306 39 -77 90 -103 189 -97 135
8 199 81 191 221 -4 85 -29 132 -89 166 -49 27 -142 35 -192 16z m161 -62 c37
-24 55 -79 49 -150 -7 -95 -52 -144 -132 -144 -82 0 -134 65 -135 165 0 100
61 162 149 150 25 -3 55 -12 69 -21z"/>
<path d="M2672 1368 l3 -201 33 -1 32 -1 0 55 c0 47 5 60 33 94 l33 38 70 -93
c63 -84 74 -94 102 -94 18 0 32 3 32 7 0 4 -36 56 -79 115 -77 104 -79 109
-62 128 9 11 43 50 75 88 l58 67 -39 0 c-38 0 -43 -4 -124 -104 -46 -58 -87
-105 -91 -105 -5 -1 -8 46 -8 104 l0 105 -35 0 -35 0 2 -202z"/>
<path d="M3542 1378 c-23 -106 -42 -196 -42 -200 0 -5 13 -8 29 -8 29 0 30 2
46 78 10 42 22 99 29 126 l12 50 54 -132 c30 -72 60 -132 65 -132 6 0 25 39
44 88 49 125 74 178 77 167 1 -5 14 -62 29 -126 25 -114 27 -117 56 -121 17
-3 29 0 29 6 0 6 -21 98 -47 203 -36 146 -52 193 -63 193 -11 0 -32 -45 -69
-145 -30 -80 -55 -145 -56 -145 -2 0 -29 65 -61 145 -40 98 -64 145 -74 145
-12 0 -25 -45 -58 -192z"/>
<path d="M4040 1368 l0 -203 30 0 30 0 0 203 0 202 -30 0 -30 0 0 -202z"/>
<path d="M4220 1367 l0 -203 28 1 27 0 5 145 5 145 125 -147 c69 -81 131 -147
138 -147 9 -1 12 46 12 204 l0 205 -30 0 -30 0 0 -135 c0 -74 -3 -135 -7 -135
-5 0 -62 61 -127 135 -66 74 -126 135 -133 135 -10 0 -13 -41 -13 -203z"/>
<path d="M4660 1372 c0 -109 2 -201 5 -204 3 -2 18 -3 35 0 l30 4 0 94 0 94
85 0 c84 0 85 0 85 25 0 25 -1 25 -85 25 l-85 0 0 55 0 55 120 0 120 0 0 25 0
25 -155 0 -155 0 0 -198z"/>
</g>
</svg>
